<svg width="330" height="301" viewBox="0 0 330 301" fill="none" xmlns="http://www.w3.org/2000/svg">
<path fill-rule="evenodd" clip-rule="evenodd" d="M258.149 300.31C301.157 270.608 329.339 220.968 329.339 164.745C329.339 73.8202 255.63 0.110687 164.705 0.110687C73.7794 0.110687 0.0699463 73.8202 0.0699463 164.745C0.0699463 220.968 28.2521 270.608 71.2605 300.31H258.149Z" fill="white" fill-opacity="0.3"/>
<path d="M155.865 172.66L156.685 173.54L158.645 175.26L159.665 176.11L161.975 177.75L163.165 178.55L165.735 180.07L167.055 180.82L169.835 182.19L172.655 183.52L178.595 185.58L180.085 186.04L183.045 186.76L187.395 187.52L188.015 187.6L189.035 187.72L189.515 187.77L190.295 187.84L191.015 187.88L191.865 187.77L192.215 187.67L192.515 187.2L192.645 186.02V185.72L192.485 184.86L192.375 184.39L192.035 183.3L190.575 179.79L190.005 178.68L189.205 176.84L189.045 176.44L188.865 175.87L188.825 175.44L188.865 175.39L189.425 175.4L189.765 175.41L190.815 175.51L191.385 175.58L192.795 175.76L195.145 176.12L195.965 176.26L198.065 176.47L199.165 176.56L201.595 176.68L202.825 176.72L205.285 176.74L208.685 176.63L216.215 176.15L215.835 179.43L215.765 180.07L215.845 181.32L215.925 181.95L216.385 183.35L216.675 184.08L217.585 185.82L219.545 189.02L220.145 189.94L221.195 191.77L221.685 192.67L222.495 194.36L222.855 195.17L223.345 196.58L223.645 198.2V198.67L223.255 199.84L223.005 200.46L222.135 201.91L221.655 202.66L220.365 204.32L219.675 205.17L218.015 207L217.145 207.92L215.165 209.86L214.135 210.84L211.875 212.83L204.325 218.77L203.245 219.54L201.355 220.97L200.465 221.66L199.045 222.82L198.415 223.35L197.635 224.11L197.335 224.66L197.395 224.68L197.745 224.67L197.945 224.65L198.565 224.58L199.255 224.49L201.305 224.15L202.415 223.95L205.135 223.43L209.655 222.51L221.135 220.09L223.845 223.26L224.655 224.2L225.705 225.58L226.135 226.19L226.455 227.01L226.535 227.36L226.155 227.73L224.825 227.93H224.565L223.565 228.12L222.985 228.24L221.485 228.63L216.015 230.31L213.465 231.17L208.875 232.98L206.665 233.9L202.715 235.84L200.815 236.83L197.455 238.95L195.845 240.04L193.025 242.39L191.675 243.59L189.345 246.21L188.235 247.56L186.345 250.49L185.445 252L183.945 255.29L182.065 260.68L182.035 260.8L181.595 261.01L181.315 261.11L180.315 261.28L179.745 261.36L178.095 261.5L177.185 261.56L174.805 261.66L173.525 261.71L170.325 261.78L168.615 261.82L164.515 261.86L162.345 261.88L157.265 261.9L155.925 261.91H153.045H148.425H146.135L141.715 261.89L139.535 261.88L135.405 261.84L133.385 261.82L129.635 261.77L127.815 261.74L124.545 261.66L122.975 261.63L120.275 261.54L119.015 261.5L116.985 261.4L116.055 261.35L114.795 261.25L114.265 261.19L113.855 261.08L113.695 260.98L113.565 260.63L113.525 260.43L113.605 259.9L113.745 259.32L114.605 257.68L115.125 256.8L116.645 254.67L117.475 253.56L119.535 251.09L120.625 249.82L123.075 247.17L124.345 245.83L127.075 243.15L128.455 241.81L131.315 239.25L135.625 235.7L139.105 233.02L134.355 228.48L133.455 227.62L132.195 226.32L131.655 225.73L131.045 224.92L130.825 224.56L130.835 224.16L131.485 223.93H131.745L132.515 223.73L132.935 223.59L133.935 223.17L137.175 221.34L140.995 218.76L144.705 220.84L145.725 221.42L147.875 222.32L148.375 222.51L149.265 222.77L150.285 222.94H150.425L150.885 222.81L151.145 222.72L151.805 222.43L152.505 222.11L154.395 221.06L155.405 220.47L157.765 219L158.985 218.23L161.625 216.47L164.285 214.67L169.605 210.77L170.875 209.82L173.145 208L175.995 205.55L176.665 204.93L177.855 203.7L178.405 203.1L179.305 202L179.705 201.47L180.205 200.62L180.425 199.76L180.395 199.67L180.135 199.44L179.975 199.31L179.465 199.01L178.915 198.7L177.185 197.93L176.245 197.54L173.925 196.67L170.025 195.36L168.515 194.89L165.775 193.97L164.455 193.51L162.065 192.59L160.895 192.12L158.785 191.17L157.765 190.68L155.875 189.67L154.035 188.63L150.825 186.24L146.255 181.94L145.665 181.31L144.665 180.19L144.195 179.66L143.425 178.72L143.065 178.27L142.525 177.51L142.285 177.15L141.965 176.55L141.705 175.99L141.835 175.32L142.975 174.93H143.155L143.855 174.74L144.255 174.63L145.275 174.24L148.945 172.58L153.585 170.23L155.865 172.66Z" fill="#744C27"/>
<path d="M260.755 205.43L261.985 205.55L264.305 206.01L265.435 206.28L267.535 207.01L268.555 207.41L270.395 208.39L271.285 208.91L272.845 210.09L273.585 210.7L274.825 212.04L275.405 212.73L276.305 214.2L276.705 214.95L277.225 216.51L277.425 217.3L277.535 218.91V219.72L277.195 221.35L276.975 222.16L276.165 223.77L275.705 224.57L274.385 226.12L273.665 226.88L271.815 228.33L268.415 230.36L266.865 231.13L263.305 232.16L261.485 232.6L257.655 232.94L255.745 233.02L252.035 232.66L247.015 231.29L246.555 231.1L245.265 230.69L244.565 230.49L242.885 230.09L241.135 229.69L236.985 228.97L234.875 228.63L230.725 228.16L229.735 228.06L227.915 227.94L225.565 227.89L225.205 227.9L224.005 228.1L223.345 228.22L221.685 228.62L216.005 230.31H216.015L221.485 228.63L222.985 228.24L223.565 228.12L224.565 227.93H224.825L226.155 227.73L226.535 227.36L226.455 227.01L226.135 226.19L225.705 225.58L224.655 224.2L223.845 223.26L221.135 220.09L218.795 220.58L219.895 220.3L220.375 220.16L221.135 219.43L221.645 218.05V217.58L222.345 216.27L222.785 215.57L224.155 214.03L224.895 213.27L226.625 211.81L229.325 210.05L229.625 209.9L230.595 209.62L231.125 209.48L232.435 209.26L236.825 208.92H237.565L239.405 208.75L240.375 208.64L242.495 208.3L243.565 208.11L245.705 207.64L248.645 206.84L250.085 206.39L252.875 205.8L254.255 205.55L256.925 205.34L258.245 205.29M213.975 231L215.465 230.49ZM102.245 194.99L106.935 195.42L108.035 195.56L109.945 195.89L112.145 196.44L112.695 196.64L114.365 197.04L115.275 197.25L117.465 197.63L124.645 198.48L126.015 198.58L128.405 198.8L129.555 198.91L131.545 199.17L132.505 199.31L134.155 199.62L134.945 199.79L136.305 200.19L137.615 200.61L139.605 201.75L142.115 204.07L142.885 204.99L143.855 206.51L144.255 207.25L144.505 208.69L144.535 209.43L144.065 211.13L142.565 214.34L142.285 214.86L141.835 215.72L141.625 216.13L141.345 216.8L141.115 217.42L141.275 218.34L141.385 218.56L141.775 218.99L142.005 219.21L142.675 219.67L143.015 219.9L140.995 218.76L137.175 221.34L133.935 223.17L132.935 223.59L132.515 223.73L131.745 223.93H131.485L130.835 224.16L130.825 224.56L131.045 224.92L131.655 225.73L132.195 226.32L132.555 226.69L131.715 225.98L131.045 225.5L130.025 224.9L129.535 224.65L128.575 224.47L128.065 224.44L126.765 224.67L124.005 225.44L123.275 225.66L121.335 226.04L120.295 226.22L117.875 226.49L116.615 226.61L113.895 226.77L109.645 226.85L107.035 226.83L101.465 227.14L100.155 227.24L97.8346 227.5L95.1446 227.95L92.9346 228.46L88.2446 229.01L85.8946 229.2L81.2246 229.12L78.9246 229L74.6846 228.31L73.6746 228.1L71.8046 227.57L69.2746 226.62L67.6046 225.85L64.9446 224.35L63.7346 223.6L61.9546 222.1L61.1646 221.34L60.2046 219.78L59.6446 217.33V216.93L59.8646 216.07L60.0046 215.63L60.4646 214.72L60.9846 213.81L62.5946 212.03L63.4546 211.17L65.4946 209.76L68.6446 208.43L69.0546 208.34L70.1646 207.81L70.7646 207.49L72.1346 206.59L76.3946 203.08L77.9246 201.59L81.0946 199.28L82.7246 198.24L86.3146 196.76L87.2546 196.44L89.2546 195.94L90.2846 195.71L92.4846 195.37L93.6146 195.23L96.0446 195.06L100.005 194.97M145.845 221.47H145.855L145.725 221.42L144.705 220.84M148.705 184.24L147.155 182.81L146.445 182.13L146.435 182.11M158.615 92.29L160.345 92.34L163.855 92.72L165.625 92.95L169.195 93.68L170.985 94.1L174.645 95.2L176.475 95.79L180.225 97.26L182.115 98.04L185.965 99.88L187.915 100.85L191.905 103.08L198.045 106.85L204.145 110.81L211.145 109.29L213.225 108.83L217.405 108.25L219.495 108.01L223.665 107.83L225.745 107.78L229.855 107.98L231.905 108.12L235.915 108.67L237.905 108.99L241.765 109.86L243.675 110.33L247.345 111.51L249.155 112.13L252.585 113.57L254.265 114.33L257.405 116.02L258.945 116.89L261.755 118.81L263.115 119.79L265.555 121.89L266.725 122.97L268.745 125.25L269.695 126.4L271.245 128.82L271.955 130.05L272.985 132.58L273.435 133.86L273.905 136.49L274.075 137.81L273.945 140.5L273.015 144.58L272.725 145.4L272.375 146.7L272.235 147.32L272.175 148.41L272.185 148.96L272.435 150.11L273.155 152.2L273.605 153.34L274.195 155.59L274.435 156.7L274.605 158.86L274.635 159.93L274.405 161.99L274.235 163.01L273.595 164.94L273.235 165.89L272.205 167.68L271.645 168.55L270.245 170.17L269.495 170.95L267.715 172.37L264.645 174.26L263.445 174.88L261.545 175.73L260.645 176.1L259.005 176.52L258.165 176.69L256.315 176.77L252.815 176.62L250.585 176.45L246.605 175.54L240.675 173.1L234.865 170.06L229.005 172.47L227.395 173.14L224.335 174.18L223.635 174.4L222.495 174.71L221.325 174.91L220.485 174.92L219.075 175.18L218.415 175.36L217.395 175.93L216.935 176.26L216.305 177.13L216.055 177.58L216.215 176.15L208.685 176.63L205.285 176.74L202.825 176.72L201.595 176.68L199.165 176.56L198.065 176.47L195.965 176.26L195.145 176.12L192.795 175.76L191.385 175.58L190.815 175.51L189.765 175.41L189.425 175.4L188.865 175.39L188.825 175.44L188.865 175.87L189.045 176.44L189.205 176.84L189.815 178.24L189.225 177.24L188.825 176.62L187.975 175.67L187.535 175.23L186.525 174.58L184.705 173.81L183.045 173.27L179.555 171.8L177.815 171.02L174.505 169.24L172.905 168.34L170.215 166.51L169.595 166.06L168.555 165.2L167.345 163.98L166.635 163.14L165.375 161.83L165.095 161.55L164.665 161.17L164.255 160.93H164.185L163.665 161.32L163.355 161.57L162.435 162.39L161.935 162.84L160.745 163.97L158.775 165.9L153.995 170.67L153.585 170.23L148.945 172.58L145.275 174.24L144.255 174.63L143.855 174.74L143.155 174.93H142.975L141.835 175.32L141.705 175.99L141.965 176.55L142.285 177.15L142.525 177.51L143.065 178.27L143.425 178.72L144.195 179.66L144.665 180.19L145.665 181.31L145.905 181.57L145.145 180.79L144.515 180.13L143.445 178.92L142.945 178.33L142.205 177.32L141.545 176.14L141.465 175.91L140.925 175.62L140.565 175.5L139.335 175.43L138.605 175.42L136.495 175.57L135.905 175.63L134.525 175.77L132.145 176.05L130.835 176.21L128.015 176.41L126.585 176.49L123.575 176.53H120.545L114.405 176.12L112.905 175.98L110.005 175.61L108.585 175.41L105.945 174.93L104.665 174.67L102.375 174.08L99.4746 173.08L98.4746 172.65L97.0646 172.13L96.4046 171.94L95.2746 171.91L94.6846 171.96L93.2846 172.47L92.8946 172.63L91.9646 173.07L90.2746 173.89L89.1546 174.45L87.2446 175.22L86.3046 175.56L84.3046 175.99L83.2446 176.16L80.5646 176.33L79.8246 176.36L78.1246 176.38L75.1446 176.39H74.1246L72.3246 176.36L71.4646 176.34L69.9646 176.28L68.5146 176.21L66.3046 175.95L65.2646 175.79L63.5646 175.3L61.1446 174.24L59.7846 173.52L57.5246 171.97L56.4646 171.18L54.7946 169.48L54.0346 168.61L52.9646 166.76L52.0246 163.82L51.8746 162.91L52.0646 161.08L52.2346 160.17L53.0046 158.39L53.4546 157.52L54.7246 155.85L55.4246 155.04L57.1446 153.53L58.0546 152.81L60.1546 151.52L61.2346 150.91L63.6446 149.89L64.8746 149.42L67.5146 148.73L71.6746 148.12L72.3846 148.07L73.5546 147.98L74.1046 147.93L74.9846 147.82L75.8046 147.7L76.7846 147.31L77.1946 147.07L77.6346 146.25L78.1046 144.3L78.2146 143.7L78.6546 142.49L78.9046 141.88L79.5846 140.67L80.3246 139.48L82.3546 137.31L83.4346 136.28L85.8846 134.69L89.6746 133.31L90.7946 133.13L92.5046 132.49L92.8546 132.31L93.3446 131.94L93.6446 131.39V131.04L94.1046 129.87L94.4046 129.22L95.3746 127.53L95.9146 126.64L97.2746 124.6L98.0046 123.55L99.6546 121.3L101.355 119.02L105.125 114.49L106.065 113.41L107.895 111.44L110.445 108.93L111.825 107.67L114.715 105.39L116.175 104.29L119.245 102.29L120.805 101.33L124.065 99.63L125.725 98.81L129.205 97.38L130.975 96.7L134.685 95.54L136.575 95L140.535 94.1L142.545 93.69L146.765 93.06L153.425 92.39L155.145 92.27M157.445 174.06L159.715 176.05L164.785 179.49L165.595 179.99L163.165 178.55L161.975 177.75L159.665 176.11L158.645 175.26L156.685 173.54L155.895 172.7" fill="#679F1A"/>
<path fill-rule="evenodd" clip-rule="evenodd" d="M257.651 300.31C251.138 269.349 212.006 245.55 164.705 245.55C117.403 245.55 78.2712 269.349 71.7579 300.31L257.651 300.31Z" fill="#ABAA93"/>
<path fill-rule="evenodd" clip-rule="evenodd" d="M252.806 287.29C239.567 262.922 205.117 245.55 164.705 245.55C124.292 245.55 89.8427 262.922 76.6036 287.29L252.806 287.29Z" fill="#F1EFDD"/>
</svg>
