<svg xmlns="http://www.w3.org/2000/svg" width="279" height="294" viewBox="0 0 279 294">
<g>
<path d="M 86.83,200.96 L 86.37,201.62 L 86.83,200.96 M 100.64,186.26 L 96.88,189.76 L 95.08,191.59 L 94.34,192.36 L 95.04,191.63 L 96.84,189.80 L 100.56,186.33 L 101.48,185.49 L 103.26,183.96 L 105.79,181.91 L 105.94,181.80 M 169.23,184.11 L 169.23,184.11 L 169.48,183.97 M 109.46,179.09 L 109.08,179.38 L 107.04,176.78 M 231.11,151.50 L 232.34,151.62 L 234.66,152.08 L 235.79,152.35 L 237.89,153.08 L 238.91,153.48 L 240.75,154.46 L 241.64,154.98 L 243.20,156.16 L 243.94,156.77 L 245.18,158.11 L 245.76,158.80 L 246.66,160.27 L 247.06,161.02 L 247.58,162.58 L 247.78,163.37 L 247.89,164.98 L 247.89,165.79 L 247.55,167.42 L 247.33,168.23 L 246.52,169.84 L 246.06,170.64 L 244.74,172.19 L 244.02,172.95 L 242.17,174.40 L 238.77,176.43 L 237.22,177.20 L 233.66,178.23 L 231.84,178.67 L 228.01,179.01 L 226.10,179.09 L 222.39,178.73 L 217.37,177.36 L 216.91,177.17 L 215.62,176.76 L 214.92,176.56 L 213.24,176.16 L 211.49,175.76 L 207.34,175.04 L 205.23,174.70 L 201.08,174.23 L 200.09,174.13 L 198.27,174.01 L 195.92,173.96 L 195.56,173.97 L 194.36,174.17 L 193.70,174.29 L 192.04,174.69 L 186.36,176.38 L 186.37,176.38 L 191.84,174.70 L 193.34,174.31 L 193.92,174.19 L 194.92,174.00 L 195.18,174.00 L 196.51,173.80 L 196.89,173.43 L 196.81,173.08 L 196.49,172.26 L 196.06,171.65 L 195.01,170.27 L 194.20,169.33 L 191.49,166.16 L 189.15,166.65 L 190.25,166.37 L 190.73,166.23 L 191.49,165.50 L 192.00,164.12 L 192.00,163.65 L 192.70,162.34 L 193.14,161.64 L 194.51,160.10 L 195.25,159.34 L 196.98,157.88 L 199.68,156.12 L 199.98,155.97 L 200.95,155.69 L 201.48,155.55 L 202.79,155.33 L 207.18,154.99 L 207.92,154.99 L 209.76,154.82 L 210.73,154.71 L 212.85,154.37 L 213.92,154.18 L 216.06,153.71 L 219.00,152.91 L 220.44,152.46 L 223.23,151.87 L 224.61,151.62 L 227.28,151.41 L 228.60,151.36 M 184.33,177.07 L 184.33,177.07 L 185.82,176.56 M 72.60,141.06 L 77.29,141.49 L 78.39,141.63 L 80.30,141.96 L 82.50,142.51 L 83.05,142.71 L 84.72,143.11 L 85.63,143.32 L 87.82,143.70 L 95.00,144.55 L 96.37,144.65 L 98.76,144.87 L 99.91,144.98 L 101.90,145.24 L 102.86,145.38 L 104.51,145.69 L 105.30,145.86 L 106.66,146.26 L 107.97,146.68 L 109.96,147.82 L 112.47,150.14 L 113.24,151.06 L 114.21,152.58 L 114.61,153.32 L 114.86,154.76 L 114.89,155.50 L 114.42,157.20 L 112.92,160.41 L 112.64,160.93 L 112.19,161.79 L 111.98,162.20 L 111.70,162.87 L 111.47,163.49 L 111.63,164.41 L 111.74,164.63 L 112.13,165.06 L 112.36,165.28 L 113.03,165.74 L 113.37,165.97 L 111.35,164.83 L 107.53,167.41 L 104.29,169.24 L 103.29,169.66 L 102.87,169.80 L 102.10,170.00 L 101.84,170.00 L 101.19,170.23 L 101.18,170.63 L 101.40,170.99 L 102.01,171.80 L 102.55,172.39 L 102.91,172.76 L 102.07,172.05 L 101.40,171.57 L 100.38,170.97 L 99.89,170.72 L 98.93,170.54 L 98.42,170.51 L 97.12,170.74 L 94.36,171.51 L 93.63,171.73 L 91.69,172.11 L 90.65,172.29 L 88.23,172.56 L 86.97,172.68 L 84.25,172.84 L 80.00,172.92 L 77.39,172.90 L 71.82,173.21 L 70.51,173.31 L 68.19,173.57 L 65.50,174.02 L 63.29,174.53 L 58.60,175.08 L 56.25,175.27 L 51.58,175.19 L 49.28,175.07 L 45.04,174.38 L 44.03,174.17 L 42.16,173.64 L 39.63,172.69 L 37.96,171.92 L 35.30,170.42 L 34.09,169.67 L 32.31,168.17 L 31.52,167.41 L 30.56,165.85 L 30.00,163.40 L 30.00,163.00 L 30.22,162.14 L 30.36,161.70 L 30.82,160.79 L 31.34,159.88 L 32.95,158.10 L 33.81,157.24 L 35.85,155.83 L 39.00,154.50 L 39.41,154.41 L 40.52,153.88 L 41.12,153.56 L 42.49,152.66 L 46.75,149.15 L 48.28,147.66 L 51.45,145.35 L 53.08,144.31 L 56.67,142.83 L 57.61,142.51 L 59.61,142.01 L 60.64,141.78 L 62.84,141.44 L 63.97,141.30 L 66.40,141.13 L 70.36,141.04 M 172.77,170.02 L 171.66,170.22 L 169.61,170.56 L 168.92,170.65 L 168.30,170.72 L 168.10,170.74 L 167.98,170.74 L 168.32,170.71 L 168.86,170.65 L 170.52,170.39 L 171.43,170.24 L 173.65,169.85 L 173.91,169.80 M 120.70,169.01 L 120.78,169.01 L 120.78,169.01 L 120.64,169.01 L 119.62,168.84 L 118.90,168.63 M 116.20,167.54 L 116.21,167.54 L 116.08,167.49 L 115.06,166.91 L 115.06,166.91 M 188.38,153.05 L 187.52,153.98 L 185.54,155.91 L 184.52,156.89 L 182.27,158.87 L 174.75,164.79 L 173.69,165.55 L 173.29,165.85 L 173.60,165.61 L 174.68,164.84 L 182.23,158.90 L 184.49,156.91 L 185.52,155.93 L 187.50,153.99 L 188.37,153.07 L 189.25,152.10 M 141.23,155.89 L 139.96,156.84 L 134.64,160.74 L 132.53,162.17 L 134.69,160.71 L 140.00,156.81 L 141.26,155.86 L 143.53,154.05 L 146.35,151.62 L 143.50,154.07 M 186.23,126.87 L 186.35,127.62 L 186.89,129.30 L 187.21,130.18 L 188.15,132.10 L 190.00,135.24 L 190.58,136.13 L 191.60,137.92 L 192.08,138.80 L 192.87,140.47 L 193.22,141.27 L 193.70,142.66 L 194.00,144.27 L 193.70,142.65 L 193.21,141.24 L 192.85,140.43 L 192.04,138.74 L 191.55,137.84 L 190.50,136.01 L 189.90,135.09 L 187.94,131.89 L 187.03,130.15 L 186.74,129.42 L 186.28,128.02 L 186.20,127.39 L 186.12,126.14 L 186.13,125.99 M 124.39,134.70 L 126.23,135.74 L 128.12,136.75 L 129.14,137.24 L 130.23,137.73 L 128.38,136.92 L 125.81,135.63 L 125.26,135.30 L 123.98,134.41 L 123.31,133.93 L 122.78,133.50 M 162.87,133.27 L 162.57,133.74 L 162.22,133.84 L 161.37,133.95 L 160.65,133.91 L 159.87,133.84 L 159.39,133.79 L 158.61,133.70 L 160.25,133.86 L 160.78,133.89 L 161.57,133.83 L 161.93,133.79 L 162.42,133.55 L 162.63,133.41 L 162.87,132.97 L 162.92,132.83 M 163.00,132.09 L 162.99,132.16 L 163.00,132.03 M 162.39,129.37 L 162.73,130.46 L 162.84,130.93 L 162.90,131.29 L 162.83,130.90 L 162.72,130.44 L 162.36,129.31 L 161.59,127.43 M 119.06,130.31 L 117.51,128.88 L 116.80,128.20 L 116.79,128.18 M 128.97,38.36 L 130.70,38.41 L 134.21,38.79 L 135.98,39.02 L 139.55,39.75 L 141.34,40.17 L 145.00,41.27 L 146.83,41.86 L 150.58,43.33 L 152.47,44.11 L 156.32,45.95 L 158.27,46.92 L 162.26,49.15 L 168.40,52.92 L 174.50,56.88 L 181.50,55.36 L 183.58,54.90 L 187.76,54.32 L 189.85,54.08 L 194.02,53.90 L 196.10,53.85 L 200.21,54.05 L 202.26,54.19 L 206.27,54.74 L 208.26,55.06 L 212.12,55.93 L 214.03,56.40 L 217.70,57.58 L 219.51,58.20 L 222.94,59.64 L 224.62,60.40 L 227.76,62.09 L 229.30,62.96 L 232.11,64.88 L 233.47,65.86 L 235.91,67.96 L 237.08,69.04 L 239.10,71.32 L 240.05,72.47 L 241.60,74.89 L 242.31,76.12 L 243.34,78.65 L 243.79,79.93 L 244.26,82.56 L 244.43,83.88 L 244.30,86.57 L 243.37,90.65 L 243.08,91.47 L 242.73,92.77 L 242.59,93.39 L 242.53,94.48 L 242.54,95.03 L 242.79,96.18 L 243.51,98.27 L 243.96,99.41 L 244.55,101.66 L 244.79,102.77 L 244.96,104.93 L 244.99,106.00 L 244.76,108.06 L 244.59,109.08 L 243.95,111.01 L 243.59,111.96 L 242.56,113.75 L 242.00,114.62 L 240.60,116.24 L 239.85,117.02 L 238.07,118.44 L 235.00,120.33 L 233.80,120.95 L 231.90,121.80 L 231.00,122.17 L 229.36,122.59 L 228.52,122.76 L 226.67,122.84 L 223.17,122.69 L 220.94,122.52 L 216.96,121.61 L 211.03,119.17 L 205.22,116.13 L 199.36,118.54 L 197.75,119.21 L 194.69,120.25 L 193.99,120.47 L 192.85,120.78 L 191.68,120.98 L 190.84,120.99 L 189.43,121.25 L 188.77,121.43 L 187.75,122.00 L 187.29,122.33 L 186.66,123.20 L 186.41,123.65 L 186.57,122.22 L 179.04,122.70 L 175.64,122.81 L 173.18,122.79 L 171.95,122.75 L 169.52,122.63 L 168.42,122.54 L 166.32,122.33 L 165.50,122.19 L 163.15,121.83 L 161.74,121.65 L 161.17,121.58 L 160.12,121.48 L 159.78,121.47 L 159.22,121.46 L 159.18,121.51 L 159.22,121.94 L 159.40,122.51 L 159.56,122.91 L 160.17,124.31 L 159.58,123.31 L 159.18,122.69 L 158.33,121.74 L 157.89,121.30 L 156.88,120.65 L 155.06,119.88 L 153.40,119.34 L 149.91,117.87 L 148.17,117.09 L 144.86,115.31 L 143.26,114.41 L 140.57,112.58 L 139.95,112.13 L 138.91,111.27 L 137.70,110.05 L 136.99,109.21 L 135.73,107.90 L 135.45,107.62 L 135.02,107.24 L 134.61,107.00 L 134.54,107.00 L 134.02,107.39 L 133.71,107.64 L 132.79,108.46 L 132.29,108.91 L 131.10,110.04 L 129.13,111.97 L 124.35,116.74 L 123.94,116.30 L 119.30,118.65 L 115.63,120.31 L 114.61,120.70 L 114.21,120.81 L 113.51,121.00 L 113.33,121.00 L 112.19,121.39 L 112.06,122.06 L 112.32,122.62 L 112.64,123.22 L 112.88,123.58 L 113.42,124.34 L 113.78,124.79 L 114.55,125.73 L 115.02,126.26 L 116.02,127.38 L 116.26,127.64 L 115.50,126.86 L 114.87,126.20 L 113.80,124.99 L 113.30,124.40 L 112.56,123.39 L 111.90,122.21 L 111.82,121.98 L 111.28,121.69 L 110.92,121.57 L 109.69,121.50 L 108.96,121.49 L 106.85,121.64 L 106.26,121.70 L 104.88,121.84 L 102.50,122.12 L 101.19,122.28 L 98.37,122.48 L 96.94,122.56 L 93.93,122.60 L 90.90,122.60 L 84.76,122.19 L 83.26,122.05 L 80.36,121.68 L 78.94,121.48 L 76.30,121.00 L 75.02,120.74 L 72.73,120.15 L 69.83,119.15 L 68.83,118.72 L 67.42,118.20 L 66.76,118.01 L 65.63,117.98 L 65.04,118.03 L 63.64,118.54 L 63.25,118.70 L 62.32,119.14 L 60.63,119.96 L 59.51,120.52 L 57.60,121.29 L 56.66,121.63 L 54.66,122.06 L 53.60,122.23 L 50.92,122.40 L 50.18,122.43 L 48.48,122.45 L 45.50,122.46 L 44.48,122.46 L 42.68,122.43 L 41.82,122.41 L 40.32,122.35 L 38.87,122.28 L 36.66,122.02 L 35.62,121.86 L 33.92,121.37 L 31.50,120.31 L 30.14,119.59 L 27.88,118.04 L 26.82,117.25 L 25.15,115.55 L 24.39,114.68 L 23.32,112.83 L 22.38,109.89 L 22.23,108.98 L 22.42,107.15 L 22.59,106.24 L 23.36,104.46 L 23.81,103.59 L 25.08,101.92 L 25.78,101.11 L 27.50,99.60 L 28.41,98.88 L 30.51,97.59 L 31.59,96.98 L 34.00,95.96 L 35.23,95.49 L 37.87,94.80 L 42.03,94.19 L 42.74,94.14 L 43.91,94.05 L 44.46,94.00 L 45.34,93.89 L 46.16,93.77 L 47.14,93.38 L 47.55,93.14 L 47.99,92.32 L 48.46,90.37 L 48.57,89.77 L 49.01,88.56 L 49.26,87.95 L 49.94,86.74 L 50.68,85.55 L 52.71,83.38 L 53.79,82.35 L 56.24,80.76 L 60.03,79.38 L 61.15,79.20 L 62.86,78.56 L 63.21,78.38 L 63.70,78.01 L 64.00,77.46 L 64.00,77.11 L 64.46,75.94 L 64.76,75.29 L 65.73,73.60 L 66.27,72.71 L 67.63,70.67 L 68.36,69.62 L 70.01,67.37 L 71.71,65.09 L 75.48,60.56 L 76.42,59.48 L 78.25,57.51 L 80.80,55.00 L 82.18,53.74 L 85.07,51.46 L 86.53,50.36 L 89.60,48.36 L 91.16,47.40 L 94.42,45.70 L 96.08,44.88 L 99.56,43.45 L 101.33,42.77 L 105.04,41.61 L 106.93,41.07 L 110.89,40.17 L 112.90,39.76 L 117.12,39.13 L 123.78,38.46 L 125.50,38.34 M 127.80,120.13 L 130.07,122.12 L 135.14,125.56 L 135.95,126.06 L 133.52,124.62 L 132.33,123.82 L 130.02,122.18 L 129.00,121.33 L 127.04,119.61 L 126.25,118.77 M 159.14,192.68 L 160.05,191.66 L 161.97,189.64 L 163.06,188.68 L 165.33,186.78 L 166.60,185.88 L 167.90,185.01 L 166.60,185.88 L 165.33,186.79 L 163.06,188.68 L 161.97,189.64 L 160.05,191.66 L 159.14,192.68 L 157.56,194.83 L 155.58,198.22 L 157.57,194.83 M 136.85,140.28 L 138.87,140.96 L 140.38,141.43 L 137.64,140.58 Z" fill="rgba(5,162,104,1)"/>
<path d="M 95.04,257.18 L 98.11,258.27 L 104.27,260.34 L 107.18,261.14 L 110.04,261.89 L 111.38,262.19 L 114.00,262.74 L 112.02,262.43 L 105.72,260.90 L 102.57,260.05 L 96.40,257.86 L 93.34,256.69 L 89.19,254.75 M 174.00,257.93 L 173.11,258.21 L 171.95,258.55 L 174.86,257.60 M 183.18,254.42 L 182.45,254.70 L 185.85,253.13 M 191.58,250.06 L 188.92,251.65 L 188.32,251.94 L 190.81,250.49 L 195.40,247.64 M 196.76,246.78 L 196.73,246.79 L 196.91,246.66 M 69.80,242.65 L 69.05,242.07 L 67.05,240.21 M 205.69,239.18 L 203.67,241.21 L 203.03,241.73 L 203.84,240.99 L 204.75,240.10 L 207.72,237.01 M 62.20,235.37 L 63.22,236.45 L 65.18,238.47 L 64.82,238.13 L 62.81,236.14 L 61.98,235.12 M 209.56,235.04 L 208.53,236.14 L 210.02,234.35 L 210.79,233.41 M 84.96,203.75 L 84.10,205.39 L 83.96,205.97 L 83.88,206.50 L 83.92,206.70 L 84.05,207.05 L 84.21,207.15 L 84.62,207.26 L 85.15,207.32 L 86.41,207.42 L 87.34,207.47 L 89.37,207.57 L 90.63,207.61 L 93.33,207.70 L 94.90,207.73 L 98.17,207.81 L 99.99,207.84 L 103.74,207.89 L 105.76,207.91 L 109.89,207.95 L 112.07,207.96 L 116.49,207.98 L 118.78,207.98 L 123.40,207.98 L 126.28,207.98 L 127.62,207.97 L 132.70,207.95 L 134.87,207.93 L 138.97,207.89 L 140.68,207.85 L 143.88,207.78 L 145.16,207.73 L 147.54,207.63 L 148.45,207.57 L 150.10,207.43 L 150.67,207.35 L 151.67,207.18 L 151.95,207.08 L 152.39,206.87 L 152.42,206.75 L 153.10,204.79 L 153.24,205.17 L 153.39,205.38 L 153.90,205.73 L 154.19,205.90 L 155.01,206.17 L 155.46,206.30 L 156.63,206.50 L 157.27,206.59 L 158.82,206.73 L 159.66,206.79 L 161.64,206.88 L 162.69,206.91 L 165.14,206.96 L 166.43,206.98 L 169.38,207.00 L 170.93,207.01 L 174.42,207.01 L 176.24,207.01 L 180.32,207.01 L 187.13,207.00 L 221.26,207.00 L 220.61,211.25 L 220.23,213.80 L 218.77,218.78 L 217.93,221.24 L 217.50,222.13 L 217.90,221.00 L 53.49,221.00 L 52.69,218.81 L 52.33,217.70 L 51.80,215.59 L 51.31,212.70 L 50.72,207.00 L 82.67,207.00 L 85.26,203.24 M 87.00,200.74 L 86.46,201.49 L 86.83,200.95 L 87.09,200.62 M 88.24,199.14 L 88.62,198.66 L 89.39,197.76 M 91.41,195.43 L 91.55,195.26 L 91.82,194.99 M 166.60,185.88 L 165.74,186.49 L 166.20,186.11 L 167.81,185.02 L 168.87,184.35 M 178.72,179.26 L 175.33,180.82 L 173.69,181.61 L 170.69,183.27 L 169.52,183.94 L 171.17,182.90 L 173.07,181.91 L 177.02,179.97 L 179.23,179.05 L 180.16,178.68 M 105.44,182.22 L 105.98,181.76 L 109.46,179.09 L 105.98,181.77 M 180.98,178.36 L 183.82,177.24 L 184.33,177.07 M 163.42,260.77 L 160.00,261.52 L 164.09,260.61 Z" fill="rgba(158,253,184,1)"/>
<path d="M 126.22,118.73 L 127.04,119.61 L 129.00,121.33 L 130.02,122.18 L 132.33,123.82 L 133.52,124.62 L 136.09,126.14 L 137.41,126.89 L 140.19,128.26 L 143.01,129.59 L 148.95,131.65 L 150.44,132.11 L 153.40,132.83 L 157.75,133.59 L 158.37,133.67 L 159.39,133.79 L 159.87,133.84 L 160.65,133.91 L 161.37,133.95 L 162.22,133.84 L 162.57,133.74 L 162.87,133.27 L 163.00,132.09 L 163.00,131.79 L 162.84,130.93 L 162.73,130.46 L 162.39,129.37 L 160.93,125.86 L 160.36,124.75 L 159.56,122.91 L 159.40,122.51 L 159.22,121.94 L 159.18,121.51 L 159.22,121.46 L 159.78,121.47 L 160.12,121.48 L 161.17,121.58 L 161.74,121.65 L 163.15,121.83 L 165.50,122.19 L 166.32,122.33 L 168.42,122.54 L 169.52,122.63 L 171.95,122.75 L 173.18,122.79 L 175.64,122.81 L 179.04,122.70 L 186.57,122.22 L 186.19,125.50 L 186.12,126.14 L 186.20,127.39 L 186.28,128.02 L 186.74,129.42 L 187.03,130.15 L 187.94,131.89 L 189.90,135.09 L 190.50,136.01 L 191.55,137.84 L 192.04,138.74 L 192.85,140.43 L 193.21,141.24 L 193.70,142.65 L 194.00,144.27 L 194.00,144.74 L 193.61,145.91 L 193.36,146.53 L 192.49,147.98 L 192.01,148.73 L 190.72,150.39 L 190.03,151.24 L 188.37,153.07 L 187.50,153.99 L 185.52,155.93 L 184.49,156.91 L 182.23,158.90 L 174.68,164.84 L 173.60,165.61 L 171.71,167.04 L 170.82,167.73 L 169.40,168.89 L 168.77,169.42 L 167.99,170.18 L 167.69,170.73 L 167.75,170.75 L 168.10,170.74 L 168.30,170.72 L 168.92,170.65 L 169.61,170.56 L 171.66,170.22 L 172.77,170.02 L 175.49,169.50 L 180.01,168.58 L 191.49,166.16 L 194.20,169.33 L 195.01,170.27 L 196.06,171.65 L 196.49,172.26 L 196.81,173.08 L 196.89,173.43 L 196.51,173.80 L 195.18,174.00 L 194.92,174.00 L 193.92,174.19 L 193.34,174.31 L 191.84,174.70 L 186.37,176.38 L 183.82,177.24 L 179.23,179.05 L 177.02,179.97 L 173.07,181.91 L 171.17,182.90 L 167.81,185.02 L 166.20,186.11 L 163.38,188.46 L 162.03,189.66 L 159.70,192.28 L 158.59,193.63 L 156.70,196.56 L 155.80,198.07 L 154.30,201.36 L 152.42,206.75 L 152.39,206.87 L 151.95,207.08 L 151.67,207.18 L 150.67,207.35 L 150.10,207.43 L 148.45,207.57 L 147.54,207.63 L 145.16,207.73 L 143.88,207.78 L 140.68,207.85 L 138.97,207.89 L 134.87,207.93 L 132.70,207.95 L 127.62,207.97 L 126.28,207.98 L 123.40,207.98 L 118.78,207.98 L 116.49,207.98 L 112.07,207.96 L 109.89,207.95 L 105.76,207.91 L 103.74,207.89 L 99.99,207.84 L 98.17,207.81 L 94.90,207.73 L 93.33,207.70 L 90.63,207.61 L 89.37,207.57 L 87.34,207.47 L 86.41,207.42 L 85.15,207.32 L 84.62,207.26 L 84.21,207.15 L 84.05,207.05 L 83.92,206.70 L 83.88,206.50 L 83.96,205.97 L 84.10,205.39 L 84.96,203.75 L 85.48,202.87 L 87.00,200.74 L 87.83,199.63 L 89.89,197.16 L 90.98,195.89 L 93.43,193.24 L 94.70,191.90 L 97.43,189.22 L 98.81,187.88 L 101.67,185.32 L 105.98,181.77 L 109.46,179.09 L 104.71,174.55 L 103.81,173.69 L 102.55,172.39 L 102.01,171.80 L 101.40,170.99 L 101.18,170.63 L 101.19,170.23 L 101.84,170.00 L 102.10,170.00 L 102.87,169.80 L 103.29,169.66 L 104.29,169.24 L 107.53,167.41 L 111.35,164.83 L 115.06,166.91 L 116.08,167.49 L 118.23,168.39 L 118.73,168.58 L 119.62,168.84 L 120.64,169.01 L 120.78,169.01 L 121.24,168.88 L 121.50,168.79 L 122.16,168.50 L 122.86,168.18 L 124.75,167.13 L 125.76,166.54 L 128.12,165.07 L 129.34,164.30 L 131.98,162.54 L 134.64,160.74 L 139.96,156.84 L 141.23,155.89 L 143.50,154.07 L 146.35,151.62 L 147.02,151.00 L 148.21,149.77 L 148.76,149.17 L 149.66,148.07 L 150.06,147.54 L 150.56,146.69 L 150.78,145.83 L 150.75,145.74 L 150.49,145.51 L 150.33,145.38 L 149.82,145.08 L 149.27,144.77 L 147.54,144.00 L 146.60,143.61 L 144.28,142.74 L 140.38,141.43 L 138.87,140.96 L 136.13,140.04 L 134.81,139.58 L 132.42,138.66 L 131.25,138.19 L 129.14,137.24 L 128.12,136.75 L 126.23,135.74 L 124.39,134.70 L 121.18,132.31 L 116.61,128.01 L 116.02,127.38 L 115.02,126.26 L 114.55,125.73 L 113.78,124.79 L 113.42,124.34 L 112.88,123.58 L 112.64,123.22 L 112.32,122.62 L 112.06,122.06 L 112.19,121.39 L 113.33,121.00 L 113.51,121.00 L 114.21,120.81 L 114.61,120.70 L 115.63,120.31 L 119.30,118.65 L 123.94,116.30 Z" fill="rgba(158,45,27,1)"/>
<path d="M 115.17,262.92 L 114.00,262.74 L 111.38,262.19 L 110.04,261.89 L 107.18,261.14 L 104.27,260.34 L 98.11,258.27 L 95.04,257.18 L 89.15,254.73 L 87.73,254.11 L 85.08,252.84 L 81.49,250.94 L 78.90,249.47 L 73.73,245.80 L 71.18,243.89 L 66.46,239.68 L 65.32,238.61 L 63.22,236.45 L 62.20,235.37 L 60.36,233.22 L 59.48,232.15 L 57.96,230.06 L 56.11,227.06 L 52.88,221.00 L 135.39,221.00 L 217.90,221.00 L 216.93,223.75 L 216.69,224.42 L 215.91,225.98 L 215.48,226.79 L 214.35,228.57 L 213.75,229.48 L 212.35,231.41 L 211.62,232.38 L 210.02,234.35 L 208.37,236.33 L 204.75,240.10 L 203.84,240.99 L 202.03,242.64 L 199.39,244.80 L 196.59,246.90 L 190.81,250.49 L 187.87,252.20 L 181.63,255.07 L 178.43,256.43 L 171.49,258.70 L 169.70,259.23 L 165.94,260.20 L 160.00,261.52 L 158.84,261.76 L 155.76,262.17 L 154.12,262.37 L 150.29,262.72 L 148.30,262.88 L 143.99,263.13 L 141.81,263.25 L 137.31,263.42 L 135.07,263.49 L 130.66,263.55 L 128.50,263.57 L 124.47,263.52 L 122.54,263.48 L 119.17,263.31 L 118.38,263.26 L 116.98,263.14 L 116.31,263.07 Z" fill="rgba(214,254,230,1)"/>
</g>
</svg>