<svg width="226" height="223" viewBox="0 0 226 223" fill="none" xmlns="http://www.w3.org/2000/svg">
<path d="M104.252 80.66L105.072 81.54L107.032 83.26L108.052 84.11L110.362 85.75L111.552 86.55L114.122 88.07L115.442 88.82L118.222 90.19L121.042 91.52L126.982 93.58L128.472 94.04L131.432 94.76L135.782 95.52L136.402 95.6L137.422 95.72L137.902 95.77L138.682 95.84L139.402 95.88L140.252 95.77L140.602 95.67L140.902 95.2L141.032 94.02V93.72L140.872 92.86L140.762 92.39L140.422 91.3L138.962 87.79L138.392 86.68L137.592 84.84L137.432 84.44L137.252 83.87L137.212 83.44L137.252 83.39L137.812 83.4L138.152 83.41L139.202 83.51L139.772 83.58L141.182 83.76L143.532 84.12L144.352 84.26L146.452 84.47L147.552 84.56L149.982 84.68L151.212 84.72L153.672 84.74L157.072 84.63L164.602 84.15L164.222 87.43L164.152 88.07L164.232 89.32L164.312 89.95L164.772 91.35L165.062 92.08L165.972 93.82L167.932 97.02L168.532 97.94L169.582 99.77L170.072 100.67L170.882 102.36L171.242 103.17L171.732 104.58L172.032 106.2V106.67L171.642 107.84L171.392 108.46L170.522 109.91L170.042 110.66L168.752 112.32L168.062 113.17L166.402 115L165.532 115.92L163.552 117.86L162.522 118.84L160.262 120.83L152.712 126.77L151.632 127.54L149.742 128.97L148.852 129.66L147.432 130.82L146.802 131.35L146.022 132.11L145.722 132.66L145.782 132.68L146.132 132.67L146.332 132.65L146.952 132.58L147.642 132.49L149.692 132.15L150.802 131.95L153.522 131.43L158.042 130.51L169.522 128.09L172.232 131.26L173.042 132.2L174.092 133.58L174.522 134.19L174.842 135.01L174.922 135.36L174.542 135.73L173.212 135.93H172.952L171.952 136.12L171.372 136.24L169.872 136.63L164.402 138.31L161.852 139.17L157.262 140.98L155.052 141.9L151.102 143.84L149.202 144.83L145.842 146.95L144.232 148.04L141.412 150.39L140.062 151.59L137.732 154.21L136.622 155.56L134.732 158.49L133.832 160L132.332 163.29L130.452 168.68L130.422 168.8L129.982 169.01L129.702 169.11L128.702 169.28L128.132 169.36L126.482 169.5L125.572 169.56L123.192 169.66L121.912 169.71L118.712 169.78L117.002 169.82L112.902 169.86L110.732 169.88L105.652 169.9L104.312 169.91H101.432H96.8116H94.5216L90.1016 169.89L87.9216 169.88L83.7916 169.84L81.7716 169.82L78.0216 169.77L76.2016 169.74L72.9316 169.66L71.3616 169.63L68.6616 169.54L67.4016 169.5L65.3716 169.4L64.4416 169.35L63.1816 169.25L62.6516 169.19L62.2416 169.08L62.0816 168.98L61.9516 168.63L61.9116 168.43L61.9916 167.9L62.1316 167.32L62.9916 165.68L63.5116 164.8L65.0316 162.67L65.8616 161.56L67.9216 159.09L69.0116 157.82L71.4616 155.17L72.7316 153.83L75.4616 151.15L76.8416 149.81L79.7016 147.25L84.0116 143.7L87.4916 141.02L82.7416 136.48L81.8416 135.62L80.5816 134.32L80.0416 133.73L79.4316 132.92L79.2116 132.56L79.2216 132.16L79.8716 131.93H80.1316L80.9016 131.73L81.3216 131.59L82.3216 131.17L85.5616 129.34L89.3816 126.76L93.0916 128.84L94.1116 129.42L96.2616 130.32L96.7616 130.51L97.6516 130.77L98.6716 130.94H98.8116L99.2716 130.81L99.5316 130.72L100.192 130.43L100.892 130.11L102.782 129.06L103.792 128.47L106.152 127L107.372 126.23L110.012 124.47L112.672 122.67L117.992 118.77L119.262 117.82L121.532 116L124.382 113.55L125.052 112.93L126.242 111.7L126.792 111.1L127.692 110L128.092 109.47L128.592 108.62L128.812 107.76L128.782 107.67L128.522 107.44L128.362 107.31L127.852 107.01L127.302 106.7L125.572 105.93L124.632 105.54L122.312 104.67L118.412 103.36L116.902 102.89L114.162 101.97L112.842 101.51L110.452 100.59L109.282 100.12L107.172 99.17L106.152 98.68L104.262 97.67L102.422 96.63L99.2116 94.24L94.6416 89.94L94.0516 89.31L93.0516 88.19L92.5816 87.66L91.8116 86.72L91.4516 86.27L90.9116 85.51L90.6716 85.15L90.3516 84.55L90.0916 83.99L90.2216 83.32L91.3616 82.93H91.5416L92.2416 82.74L92.6416 82.63L93.6616 82.24L97.3316 80.58L101.972 78.23L104.252 80.66Z" fill="#9E2D1B"/>
<path d="M209.141 113.43L210.371 113.55L212.691 114.01L213.821 114.28L215.921 115.01L216.941 115.41L218.781 116.39L219.671 116.91L221.231 118.09L221.971 118.7L223.211 120.04L223.791 120.73L224.691 122.2L225.091 122.95L225.611 124.51L225.811 125.3L225.921 126.91V127.72L225.581 129.35L225.361 130.16L224.551 131.77L224.091 132.57L222.771 134.12L222.051 134.88L220.201 136.33L216.801 138.36L215.251 139.13L211.691 140.16L209.871 140.6L206.041 140.94L204.131 141.02L200.421 140.66L195.401 139.29L194.941 139.1L193.651 138.69L192.951 138.49L191.271 138.09L189.521 137.69L185.371 136.97L183.261 136.63L179.111 136.16L178.121 136.06L176.301 135.94L173.951 135.89L173.591 135.9L172.391 136.1L171.731 136.22L170.071 136.62L164.391 138.31H164.401L169.871 136.63L171.371 136.24L171.951 136.12L172.951 135.93H173.211L174.541 135.73L174.921 135.36L174.841 135.01L174.521 134.19L174.091 133.58L173.041 132.2L172.231 131.26L169.521 128.09L167.181 128.58L168.281 128.3L168.761 128.16L169.521 127.43L170.031 126.05V125.58L170.731 124.27L171.171 123.57L172.541 122.03L173.281 121.27L175.011 119.81L177.711 118.05L178.011 117.9L178.981 117.62L179.511 117.48L180.821 117.26L185.211 116.92H185.951L187.791 116.75L188.761 116.64L190.881 116.3L191.951 116.11L194.091 115.64L197.031 114.84L198.471 114.39L201.261 113.8L202.641 113.55L205.311 113.34L206.631 113.29M162.361 139L163.851 138.49ZM50.6315 102.99L55.3215 103.42L56.4215 103.56L58.3315 103.89L60.5315 104.44L61.0815 104.64L62.7515 105.04L63.6615 105.25L65.8515 105.63L73.0315 106.48L74.4015 106.58L76.7915 106.8L77.9415 106.91L79.9315 107.17L80.8915 107.31L82.5415 107.62L83.3315 107.79L84.6915 108.19L86.0015 108.61L87.9915 109.75L90.5015 112.07L91.2715 112.99L92.2415 114.51L92.6415 115.25L92.8915 116.69L92.9215 117.43L92.4515 119.13L90.9515 122.34L90.6715 122.86L90.2215 123.72L90.0115 124.13L89.7315 124.8L89.5015 125.42L89.6615 126.34L89.7715 126.56L90.1615 126.99L90.3915 127.21L91.0615 127.67L91.4015 127.9L89.3815 126.76L85.5615 129.34L82.3215 131.17L81.3215 131.59L80.9015 131.73L80.1315 131.93H79.8715L79.2215 132.16L79.2115 132.56L79.4315 132.92L80.0415 133.73L80.5815 134.32L80.9415 134.69L80.1015 133.98L79.4315 133.5L78.4115 132.9L77.9215 132.65L76.9615 132.47L76.4515 132.44L75.1515 132.67L72.3915 133.44L71.6615 133.66L69.7215 134.04L68.6815 134.22L66.2615 134.49L65.0015 134.61L62.2815 134.77L58.0315 134.85L55.4215 134.83L49.8515 135.14L48.5415 135.24L46.2215 135.5L43.5315 135.95L41.3215 136.46L36.6315 137.01L34.2815 137.2L29.6115 137.12L27.3115 137L23.0715 136.31L22.0615 136.1L20.1915 135.57L17.6615 134.62L15.9915 133.85L13.3315 132.35L12.1215 131.6L10.3415 130.1L9.55148 129.34L8.59147 127.78L8.03148 125.33V124.93L8.25147 124.07L8.39148 123.63L8.85147 122.72L9.37148 121.81L10.9815 120.03L11.8415 119.17L13.8815 117.76L17.0315 116.43L17.4415 116.34L18.5515 115.81L19.1515 115.49L20.5215 114.59L24.7815 111.08L26.3115 109.59L29.4815 107.28L31.1115 106.24L34.7015 104.76L35.6415 104.44L37.6415 103.94L38.6715 103.71L40.8715 103.37L42.0015 103.23L44.4315 103.06L48.3915 102.97M94.2315 129.47H94.2415L94.1115 129.42L93.0915 128.84M97.0915 92.24L95.5415 90.81L94.8315 90.13L94.8215 90.11M107.001 0.29002L108.731 0.340019L112.241 0.72002L114.011 0.95002L117.581 1.68002L119.371 2.10002L123.031 3.20002L124.861 3.79002L128.611 5.26002L130.501 6.04002L134.351 7.88002L136.301 8.85002L140.291 11.08L146.431 14.85L152.531 18.81L159.531 17.29L161.611 16.83L165.791 16.25L167.881 16.01L172.051 15.83L174.131 15.78L178.241 15.98L180.291 16.12L184.301 16.67L186.291 16.99L190.151 17.86L192.061 18.33L195.731 19.51L197.541 20.13L200.971 21.57L202.651 22.33L205.791 24.02L207.331 24.89L210.141 26.81L211.501 27.79L213.941 29.89L215.111 30.97L217.131 33.25L218.081 34.4L219.631 36.82L220.341 38.05L221.371 40.58L221.821 41.86L222.291 44.49L222.461 45.81L222.331 48.5L221.401 52.58L221.111 53.4L220.761 54.7L220.621 55.32L220.561 56.41L220.571 56.96L220.821 58.11L221.541 60.2L221.991 61.34L222.581 63.59L222.821 64.7L222.991 66.86L223.021 67.93L222.791 69.99L222.621 71.01L221.981 72.94L221.621 73.89L220.591 75.68L220.031 76.55L218.631 78.17L217.881 78.95L216.101 80.37L213.031 82.26L211.831 82.88L209.931 83.73L209.031 84.1L207.391 84.52L206.551 84.69L204.701 84.77L201.201 84.62L198.971 84.45L194.991 83.54L189.061 81.1L183.251 78.06L177.391 80.47L175.781 81.14L172.721 82.18L172.021 82.4L170.881 82.71L169.711 82.91L168.871 82.92L167.461 83.18L166.801 83.36L165.781 83.93L165.321 84.26L164.691 85.13L164.441 85.58L164.601 84.15L157.071 84.63L153.671 84.74L151.211 84.72L149.981 84.68L147.551 84.56L146.451 84.47L144.351 84.26L143.531 84.12L141.181 83.76L139.771 83.58L139.201 83.51L138.151 83.41L137.811 83.4L137.251 83.39L137.211 83.44L137.251 83.87L137.431 84.44L137.591 84.84L138.201 86.24L137.611 85.24L137.211 84.62L136.361 83.67L135.921 83.23L134.911 82.58L133.091 81.81L131.431 81.27L127.941 79.8L126.201 79.02L122.891 77.24L121.291 76.34L118.601 74.51L117.981 74.06L116.941 73.2L115.731 71.98L115.021 71.14L113.761 69.83L113.481 69.55L113.051 69.17L112.641 68.93H112.571L112.051 69.32L111.741 69.57L110.821 70.39L110.321 70.84L109.131 71.97L107.161 73.9L102.381 78.67L101.971 78.23L97.3315 80.58L93.6615 82.24L92.6415 82.63L92.2415 82.74L91.5415 82.93H91.3615L90.2215 83.32L90.0915 83.99L90.3515 84.55L90.6715 85.15L90.9115 85.51L91.4515 86.27L91.8115 86.72L92.5815 87.66L93.0515 88.19L94.0515 89.31L94.2915 89.57L93.5315 88.79L92.9015 88.13L91.8315 86.92L91.3315 86.33L90.5915 85.32L89.9315 84.14L89.8515 83.91L89.3115 83.62L88.9515 83.5L87.7215 83.43L86.9915 83.42L84.8815 83.57L84.2915 83.63L82.9115 83.77L80.5315 84.05L79.2215 84.21L76.4015 84.41L74.9715 84.49L71.9615 84.53H68.9315L62.7915 84.12L61.2915 83.98L58.3915 83.61L56.9715 83.41L54.3315 82.93L53.0515 82.67L50.7615 82.08L47.8615 81.08L46.8615 80.65L45.4515 80.13L44.7915 79.94L43.6615 79.91L43.0715 79.96L41.6715 80.47L41.2815 80.63L40.3515 81.07L38.6615 81.89L37.5415 82.45L35.6315 83.22L34.6915 83.56L32.6915 83.99L31.6315 84.16L28.9515 84.33L28.2115 84.36L26.5115 84.38L23.5315 84.39H22.5115L20.7115 84.36L19.8515 84.34L18.3515 84.28L16.9015 84.21L14.6915 83.95L13.6515 83.79L11.9515 83.3L9.53148 82.24L8.17147 81.52L5.91147 79.97L4.85147 79.18L3.18147 77.48L2.42147 76.61L1.35147 74.76L0.411474 71.82L0.261475 70.91L0.451475 69.08L0.621475 68.17L1.39148 66.39L1.84147 65.52L3.11147 63.85L3.81148 63.04L5.53148 61.53L6.44147 60.81L8.54148 59.52L9.62148 58.91L12.0315 57.89L13.2615 57.42L15.9015 56.73L20.0615 56.12L20.7715 56.07L21.9415 55.98L22.4915 55.93L23.3715 55.82L24.1915 55.7L25.1715 55.31L25.5815 55.07L26.0215 54.25L26.4915 52.3L26.6015 51.7L27.0415 50.49L27.2915 49.88L27.9715 48.67L28.7115 47.48L30.7415 45.31L31.8215 44.28L34.2715 42.69L38.0615 41.31L39.1815 41.13L40.8915 40.49L41.2415 40.31L41.7315 39.94L42.0315 39.39V39.04L42.4915 37.87L42.7915 37.22L43.7615 35.53L44.3015 34.64L45.6615 32.6L46.3915 31.55L48.0415 29.3L49.7415 27.02L53.5115 22.49L54.4515 21.41L56.2815 19.44L58.8315 16.93L60.2115 15.67L63.1015 13.39L64.5615 12.29L67.6315 10.29L69.1915 9.33002L72.4515 7.63002L74.1115 6.81002L77.5915 5.38002L79.3615 4.70002L83.0715 3.54002L84.9615 3.00002L88.9215 2.10002L90.9315 1.69002L95.1515 1.06002L101.811 0.390018L103.531 0.27002M105.831 82.06L108.101 84.05L113.171 87.49L113.981 87.99L111.551 86.55L110.361 85.75L108.051 84.11L107.031 83.26L105.071 81.54L104.281 80.7" fill="#05A268"/>
<path fill-rule="evenodd" clip-rule="evenodd" d="M20.1448 167.91C26.6581 198.871 65.7903 222.67 113.092 222.67C160.393 222.67 199.525 198.871 206.038 167.91H20.1448Z" fill="#9EFDB8"/>
<path fill-rule="evenodd" clip-rule="evenodd" d="M24.9905 180.93C38.2295 205.298 72.6791 222.67 113.092 222.67C153.504 222.67 187.954 205.298 201.193 180.93H24.9905Z" fill="#D6FEE6"/>
</svg>
